<svg xmlns="http://www.w3.org/2000/svg" viewBox="0 0 1600 900" preserveAspectRatio="xMidYMid slice">
  <defs>
    <style>
      .s { fill: none; stroke: #d8d8d8; stroke-width: 2; stroke-linecap: round; stroke-linejoin: round; opacity: 0.55; }
      .s2 { opacity: 0.4; stroke-width: 1.6; }
      .s3 { opacity: 0.3; stroke-width: 1.3; }
    </style>
  </defs>

  <g class="s" transform="translate(80, 60)">
    <rect x="0" y="0" width="200" height="140" rx="6"/>
    <line x1="10" y1="26" x2="190" y2="26"/>
    <circle cx="20" cy="13" r="3"/><circle cx="34" cy="13" r="3"/><circle cx="48" cy="13" r="3"/>
    <polyline points="18,48 42,48 52,62 78,42 105,68"/>
    <line x1="18" y1="78" x2="120" y2="78"/>
    <line x1="18" y1="92" x2="90" y2="92"/>
    <line x1="18" y1="106" x2="140" y2="106"/>
    <line x1="100" y1="140" x2="100" y2="162"/>
    <line x1="65" y1="162" x2="135" y2="162"/>
  </g>

  <g class="s s2" transform="translate(620, 40)">
    <rect x="0" y="0" width="260" height="170" rx="8"/>
    <line x1="0" y1="30" x2="260" y2="30"/>
    <rect x="12" y="8" width="160" height="12" rx="4"/>
    <rect x="18" y="48" width="100" height="65" rx="3"/>
    <line x1="140" y1="48" x2="240" y2="48"/>
    <line x1="140" y1="68" x2="220" y2="68"/>
    <line x1="140" y1="88" x2="200" y2="88"/>
  </g>

  <g class="s" transform="translate(1280, 80)">
    <circle cx="70" cy="50" r="16"/>
    <circle cx="25" cy="110" r="12"/>
    <circle cx="115" cy="110" r="12"/>
    <circle cx="70" cy="170" r="14"/>
    <line x1="70" y1="66" x2="35" y2="100"/>
    <line x1="70" y1="66" x2="105" y2="100"/>
    <line x1="35" y1="122" x2="62" y2="158"/>
    <line x1="105" y1="122" x2="78" y2="158"/>
  </g>

  <g class="s s2" transform="translate(120, 380)">
    <rect x="35" y="25" width="80" height="62" rx="8"/>
    <circle cx="58" cy="48" r="7"/><circle cx="92" cy="48" r="7"/>
    <line x1="68" y1="70" x2="82" y2="70"/>
    <line x1="75" y1="87" x2="75" y2="115"/>
    <line x1="50" y1="115" x2="100" y2="115"/>
    <path d="M50,12 Q75,0 100,12 L100,25 L50,25 Z"/>
    <line x1="75" y1="0" x2="75" y2="-10"/>
    <circle cx="75" cy="-14" r="4"/>
  </g>

  <g class="s s2" transform="translate(1180, 360)">
    <circle cx="50" cy="50" r="30"/>
    <circle cx="50" cy="50" r="10"/>
    <rect x="46" y="8" width="8" height="14" rx="1"/>
    <rect x="46" y="78" width="8" height="14" rx="1"/>
    <rect x="8" y="46" width="14" height="8" rx="1"/>
    <rect x="78" y="46" width="14" height="8" rx="1"/>
    <circle cx="110" cy="80" r="18"/>
    <circle cx="110" cy="80" r="6"/>
  </g>

  <g class="s" transform="translate(720, 320)">
    <path d="M20,10 C0,10 0,40 0,60 C0,80 0,110 20,110"/>
    <path d="M60,10 C80,10 80,40 80,60 C80,80 80,110 60,110"/>
    <line x1="35" y1="35" x2="45" y2="35"/>
    <line x1="32" y1="60" x2="48" y2="60"/>
    <line x1="35" y1="85" x2="45" y2="85"/>
  </g>

  <g class="s s2" transform="translate(880, 500)">
    <rect x="0" y="0" width="130" height="65" rx="12"/>
    <polygon points="18,65 8,88 32,65"/>
    <line x1="18" y1="22" x2="112" y2="22"/>
    <line x1="18" y1="42" x2="85" y2="42"/>
  </g>

  <g class="s s3" transform="translate(400, 520)">
    <path d="M35,52 C18,52 8,40 22,30 C12,18 30,10 44,18 C48,6 70,6 74,20 C92,14 105,32 92,44 C100,56 82,64 68,60 C60,72 38,68 35,52 Z"/>
    <line x1="48" y1="68" x2="48" y2="95"/>
    <line x1="35" y1="95" x2="61" y2="95"/>
  </g>

  <g class="s s3" transform="translate(1050, 600)">
    <rect x="0" y="0" width="60" height="105" rx="9"/>
    <line x1="12" y1="22" x2="48" y2="22"/>
    <rect x="12" y="35" width="36" height="28" rx="3"/>
    <circle cx="30" cy="96" r="4"/>
  </g>

  <g class="s s2" transform="translate(60, 620)">
    <line x1="8" y1="90" x2="8" y2="8"/>
    <line x1="8" y1="90" x2="140" y2="90"/>
    <polyline points="22,72 48,48 72,58 98,30 125,40"/>
  </g>

  <g class="s s3" transform="translate(680, 680)">
    <rect x="0" y="0" width="90" height="45" rx="4"/>
    <rect x="140" y="0" width="90" height="45" rx="4"/>
    <rect x="70" y="100" width="90" height="45" rx="4"/>
    <line x1="90" y1="22" x2="140" y2="22"/>
    <polyline points="185,45 185,80 115,80 115,100"/>
  </g>

  <g class="s s3">
    <path d="M250,250 Q400,200 550,260 T850,240"/>
    <path d="M950,200 Q1100,160 1250,220"/>
    <path d="M300,750 Q500,700 700,760"/>
    <path d="M900,780 Q1050,740 1200,790"/>
  </g>

  <g class="s s3" transform="translate(1350, 620) scale(0.7)">
    <rect x="0" y="0" width="200" height="140" rx="6"/>
    <line x1="10" y1="26" x2="190" y2="26"/>
    <line x1="18" y1="78" x2="120" y2="78"/>
  </g>
  <g class="s s3" transform="translate(320, 180) scale(0.65)">
    <circle cx="70" cy="50" r="16"/>
    <circle cx="25" cy="110" r="12"/>
    <circle cx="115" cy="110" r="12"/>
    <line x1="70" y1="66" x2="35" y2="100"/>
    <line x1="70" y1="66" x2="105" y2="100"/>
  </g>
  <g class="s s3" transform="translate(1450, 280) scale(0.6)">
    <rect x="35" y="25" width="80" height="62" rx="8"/>
    <circle cx="58" cy="48" r="7"/><circle cx="92" cy="48" r="7"/>
  </g>
</svg>
